<mxfile host="app.diagrams.net" modified="2023-10-31T13:54:32.742Z" agent="Mozilla/5.0 (X11; Ubuntu; Linux x86_64; rv:109.0) Gecko/20100101 Firefox/119.0" etag="eirC0paNMNLnpINySiVN" version="22.0.8" type="device">
  <diagram name="Page-1" id="KHjvpJTeVw4SuPxQaP4i">
    <mxGraphModel dx="1005" dy="565" grid="1" gridSize="10" guides="1" tooltips="1" connect="1" arrows="1" fold="1" page="1" pageScale="1" pageWidth="827" pageHeight="1169" math="0" shadow="0">
      <root>
        <mxCell id="0" />
        <mxCell id="1" parent="0" />
        <mxCell id="k8xiuk84udCLGPVKzXrW-2" value="UART TX" style="ellipse;whiteSpace=wrap;html=1;" parent="1" vertex="1">
          <mxGeometry x="248" y="100" width="120" height="80" as="geometry" />
        </mxCell>
        <mxCell id="k8xiuk84udCLGPVKzXrW-3" value="UART RX" style="ellipse;whiteSpace=wrap;html=1;" parent="1" vertex="1">
          <mxGeometry x="248" y="300" width="120" height="80" as="geometry" />
        </mxCell>
        <mxCell id="k8xiuk84udCLGPVKzXrW-4" value="LED" style="ellipse;whiteSpace=wrap;html=1;" parent="1" vertex="1">
          <mxGeometry x="248" y="530" width="120" height="80" as="geometry" />
        </mxCell>
        <mxCell id="k8xiuk84udCLGPVKzXrW-5" value="RTC" style="ellipse;whiteSpace=wrap;html=1;" parent="1" vertex="1">
          <mxGeometry x="248" y="730" width="120" height="80" as="geometry" />
        </mxCell>
        <mxCell id="k8xiuk84udCLGPVKzXrW-6" value="Aggregate" style="rounded=0;whiteSpace=wrap;html=1;" parent="1" vertex="1">
          <mxGeometry x="548" y="310" width="120" height="60" as="geometry" />
        </mxCell>
        <mxCell id="k8xiuk84udCLGPVKzXrW-14" value="Broker" style="rounded=0;whiteSpace=wrap;html=1;" parent="1" vertex="1">
          <mxGeometry x="548" y="430" width="120" height="60" as="geometry" />
        </mxCell>
        <mxCell id="k8xiuk84udCLGPVKzXrW-25" value="Set blink data" style="rounded=0;whiteSpace=wrap;html=1;" parent="1" vertex="1">
          <mxGeometry x="548" y="540" width="120" height="60" as="geometry" />
        </mxCell>
        <mxCell id="k8xiuk84udCLGPVKzXrW-26" value="" style="endArrow=classic;html=1;rounded=0;entryX=0.5;entryY=0;entryDx=0;entryDy=0;" parent="1" source="k8xiuk84udCLGPVKzXrW-6" target="k8xiuk84udCLGPVKzXrW-14" edge="1">
          <mxGeometry width="50" height="50" relative="1" as="geometry">
            <mxPoint x="568" y="595" as="sourcePoint" />
            <mxPoint x="608" y="450" as="targetPoint" />
          </mxGeometry>
        </mxCell>
        <mxCell id="Pcf5EiftOgaEAAoJkqyD-1" value="RGB" style="ellipse;whiteSpace=wrap;html=1;" vertex="1" parent="1">
          <mxGeometry x="248" y="870" width="120" height="80" as="geometry" />
        </mxCell>
        <mxCell id="Pcf5EiftOgaEAAoJkqyD-2" value="Blink data" style="ellipse;whiteSpace=wrap;html=1;" vertex="1" parent="1">
          <mxGeometry x="248" y="430" width="120" height="80" as="geometry" />
        </mxCell>
        <mxCell id="Pcf5EiftOgaEAAoJkqyD-3" value="Receive byte" style="endArrow=classic;html=1;rounded=0;exitX=1;exitY=0.5;exitDx=0;exitDy=0;entryX=0;entryY=0.5;entryDx=0;entryDy=0;" edge="1" parent="1" source="k8xiuk84udCLGPVKzXrW-3" target="k8xiuk84udCLGPVKzXrW-6">
          <mxGeometry width="50" height="50" relative="1" as="geometry">
            <mxPoint x="488" y="550" as="sourcePoint" />
            <mxPoint x="538" y="500" as="targetPoint" />
          </mxGeometry>
        </mxCell>
        <mxCell id="Pcf5EiftOgaEAAoJkqyD-4" value="Buffer" style="ellipse;whiteSpace=wrap;html=1;" vertex="1" parent="1">
          <mxGeometry x="248" y="200" width="120" height="80" as="geometry" />
        </mxCell>
        <mxCell id="Pcf5EiftOgaEAAoJkqyD-5" value="" style="endArrow=classic;html=1;rounded=0;exitX=0;exitY=0.25;exitDx=0;exitDy=0;entryX=1;entryY=0.5;entryDx=0;entryDy=0;" edge="1" parent="1" source="k8xiuk84udCLGPVKzXrW-6" target="Pcf5EiftOgaEAAoJkqyD-4">
          <mxGeometry width="50" height="50" relative="1" as="geometry">
            <mxPoint x="378" y="350" as="sourcePoint" />
            <mxPoint x="558" y="350" as="targetPoint" />
          </mxGeometry>
        </mxCell>
        <mxCell id="Pcf5EiftOgaEAAoJkqyD-7" value="" style="endArrow=classic;html=1;rounded=0;entryX=1;entryY=0.5;entryDx=0;entryDy=0;exitX=0;exitY=0.5;exitDx=0;exitDy=0;" edge="1" parent="1" source="k8xiuk84udCLGPVKzXrW-25" target="Pcf5EiftOgaEAAoJkqyD-2">
          <mxGeometry width="50" height="50" relative="1" as="geometry">
            <mxPoint x="458" y="440" as="sourcePoint" />
            <mxPoint x="638" y="630" as="targetPoint" />
          </mxGeometry>
        </mxCell>
        <mxCell id="Pcf5EiftOgaEAAoJkqyD-10" value="Blink" style="rounded=0;whiteSpace=wrap;html=1;" vertex="1" parent="1">
          <mxGeometry x="8" y="490" width="120" height="60" as="geometry" />
        </mxCell>
        <mxCell id="Pcf5EiftOgaEAAoJkqyD-11" value="" style="endArrow=classic;html=1;rounded=0;exitX=1;exitY=0.5;exitDx=0;exitDy=0;entryX=0;entryY=0.5;entryDx=0;entryDy=0;" edge="1" parent="1" source="Pcf5EiftOgaEAAoJkqyD-10" target="Pcf5EiftOgaEAAoJkqyD-2">
          <mxGeometry width="50" height="50" relative="1" as="geometry">
            <mxPoint x="378" y="480" as="sourcePoint" />
            <mxPoint x="558" y="580" as="targetPoint" />
          </mxGeometry>
        </mxCell>
        <mxCell id="Pcf5EiftOgaEAAoJkqyD-12" value="" style="endArrow=classic;html=1;rounded=0;exitX=1;exitY=0.5;exitDx=0;exitDy=0;entryX=0;entryY=0.5;entryDx=0;entryDy=0;" edge="1" parent="1" source="Pcf5EiftOgaEAAoJkqyD-10" target="k8xiuk84udCLGPVKzXrW-4">
          <mxGeometry width="50" height="50" relative="1" as="geometry">
            <mxPoint x="138" y="530" as="sourcePoint" />
            <mxPoint x="258" y="480" as="targetPoint" />
          </mxGeometry>
        </mxCell>
        <mxCell id="Pcf5EiftOgaEAAoJkqyD-13" value="Spawn" style="endArrow=classic;html=1;rounded=0;exitX=1.005;exitY=0.62;exitDx=0;exitDy=0;entryX=1;entryY=0.5;entryDx=0;entryDy=0;exitPerimeter=0;edgeStyle=orthogonalEdgeStyle;curved=1;" edge="1" parent="1" source="k8xiuk84udCLGPVKzXrW-14" target="k8xiuk84udCLGPVKzXrW-25">
          <mxGeometry width="50" height="50" relative="1" as="geometry">
            <mxPoint x="378" y="480" as="sourcePoint" />
            <mxPoint x="558" y="670" as="targetPoint" />
            <Array as="points">
              <mxPoint x="748" y="467" />
              <mxPoint x="748" y="570" />
            </Array>
          </mxGeometry>
        </mxCell>
        <mxCell id="Pcf5EiftOgaEAAoJkqyD-15" value="Reference time" style="ellipse;whiteSpace=wrap;html=1;" vertex="1" parent="1">
          <mxGeometry x="248" y="620" width="120" height="80" as="geometry" />
        </mxCell>
        <mxCell id="Pcf5EiftOgaEAAoJkqyD-16" value="Set date time" style="rounded=0;whiteSpace=wrap;html=1;" vertex="1" parent="1">
          <mxGeometry x="548" y="720" width="120" height="60" as="geometry" />
        </mxCell>
        <mxCell id="Pcf5EiftOgaEAAoJkqyD-19" value="" style="endArrow=classic;html=1;rounded=0;exitX=0;exitY=0.5;exitDx=0;exitDy=0;entryX=1;entryY=0.5;entryDx=0;entryDy=0;" edge="1" parent="1" source="Pcf5EiftOgaEAAoJkqyD-16" target="Pcf5EiftOgaEAAoJkqyD-15">
          <mxGeometry width="50" height="50" relative="1" as="geometry">
            <mxPoint x="138" y="530" as="sourcePoint" />
            <mxPoint x="258" y="580" as="targetPoint" />
          </mxGeometry>
        </mxCell>
        <mxCell id="Pcf5EiftOgaEAAoJkqyD-21" value="Toggle RGB" style="rounded=0;whiteSpace=wrap;html=1;" vertex="1" parent="1">
          <mxGeometry x="548" y="630" width="120" height="60" as="geometry" />
        </mxCell>
        <mxCell id="Pcf5EiftOgaEAAoJkqyD-23" value="Update RGB" style="rounded=0;whiteSpace=wrap;html=1;" vertex="1" parent="1">
          <mxGeometry x="8" y="770" width="120" height="60" as="geometry" />
        </mxCell>
        <mxCell id="Pcf5EiftOgaEAAoJkqyD-24" value="RGB state" style="ellipse;whiteSpace=wrap;html=1;" vertex="1" parent="1">
          <mxGeometry x="248" y="970" width="120" height="80" as="geometry" />
        </mxCell>
        <mxCell id="Pcf5EiftOgaEAAoJkqyD-25" value="Spawn" style="endArrow=classic;html=1;rounded=0;exitX=1;exitY=0.5;exitDx=0;exitDy=0;entryX=1;entryY=0.5;entryDx=0;entryDy=0;edgeStyle=orthogonalEdgeStyle;curved=1;" edge="1" parent="1" source="k8xiuk84udCLGPVKzXrW-14" target="Pcf5EiftOgaEAAoJkqyD-21">
          <mxGeometry width="50" height="50" relative="1" as="geometry">
            <mxPoint x="679" y="477" as="sourcePoint" />
            <mxPoint x="678" y="580" as="targetPoint" />
            <Array as="points">
              <mxPoint x="778" y="460" />
              <mxPoint x="778" y="660" />
            </Array>
          </mxGeometry>
        </mxCell>
        <mxCell id="Pcf5EiftOgaEAAoJkqyD-26" value="" style="endArrow=classic;html=1;rounded=0;exitX=0;exitY=0.5;exitDx=0;exitDy=0;entryX=1;entryY=0.5;entryDx=0;entryDy=0;" edge="1" parent="1" source="Pcf5EiftOgaEAAoJkqyD-21" target="Pcf5EiftOgaEAAoJkqyD-24">
          <mxGeometry width="50" height="50" relative="1" as="geometry">
            <mxPoint x="558" y="760" as="sourcePoint" />
            <mxPoint x="378" y="670" as="targetPoint" />
          </mxGeometry>
        </mxCell>
        <mxCell id="Pcf5EiftOgaEAAoJkqyD-27" value="" style="endArrow=classic;html=1;rounded=0;exitX=1;exitY=0.5;exitDx=0;exitDy=0;entryX=0;entryY=0.5;entryDx=0;entryDy=0;" edge="1" parent="1" source="Pcf5EiftOgaEAAoJkqyD-23" target="Pcf5EiftOgaEAAoJkqyD-1">
          <mxGeometry width="50" height="50" relative="1" as="geometry">
            <mxPoint x="558" y="670" as="sourcePoint" />
            <mxPoint x="378" y="1070" as="targetPoint" />
          </mxGeometry>
        </mxCell>
        <mxCell id="Pcf5EiftOgaEAAoJkqyD-28" value="" style="endArrow=classic;html=1;rounded=0;exitX=1;exitY=0.5;exitDx=0;exitDy=0;entryX=0;entryY=0.5;entryDx=0;entryDy=0;" edge="1" parent="1" source="Pcf5EiftOgaEAAoJkqyD-23" target="Pcf5EiftOgaEAAoJkqyD-24">
          <mxGeometry width="50" height="50" relative="1" as="geometry">
            <mxPoint x="568" y="680" as="sourcePoint" />
            <mxPoint x="388" y="1080" as="targetPoint" />
          </mxGeometry>
        </mxCell>
        <mxCell id="Pcf5EiftOgaEAAoJkqyD-30" value="" style="endArrow=classic;html=1;rounded=0;exitX=1;exitY=0.25;exitDx=0;exitDy=0;entryX=0.994;entryY=0.595;entryDx=0;entryDy=0;entryPerimeter=0;edgeStyle=orthogonalEdgeStyle;curved=1;" edge="1" parent="1" source="k8xiuk84udCLGPVKzXrW-14" target="k8xiuk84udCLGPVKzXrW-2">
          <mxGeometry width="50" height="50" relative="1" as="geometry">
            <mxPoint x="388" y="440" as="sourcePoint" />
            <mxPoint x="438" y="390" as="targetPoint" />
            <Array as="points">
              <mxPoint x="738" y="445" />
              <mxPoint x="738" y="150" />
              <mxPoint x="372" y="150" />
              <mxPoint x="372" y="148" />
            </Array>
          </mxGeometry>
        </mxCell>
        <mxCell id="Pcf5EiftOgaEAAoJkqyD-35" value="" style="endArrow=classic;html=1;rounded=0;exitX=1;exitY=0.5;exitDx=0;exitDy=0;entryX=0;entryY=0.5;entryDx=0;entryDy=0;" edge="1" parent="1" source="Pcf5EiftOgaEAAoJkqyD-23" target="k8xiuk84udCLGPVKzXrW-5">
          <mxGeometry width="50" height="50" relative="1" as="geometry">
            <mxPoint x="138" y="750" as="sourcePoint" />
            <mxPoint x="258" y="970" as="targetPoint" />
          </mxGeometry>
        </mxCell>
        <mxCell id="Pcf5EiftOgaEAAoJkqyD-37" value="" style="endArrow=classic;html=1;rounded=0;exitX=1;exitY=0.5;exitDx=0;exitDy=0;entryX=0;entryY=0.5;entryDx=0;entryDy=0;" edge="1" parent="1" source="Pcf5EiftOgaEAAoJkqyD-10" target="Pcf5EiftOgaEAAoJkqyD-15">
          <mxGeometry width="50" height="50" relative="1" as="geometry">
            <mxPoint x="138" y="530" as="sourcePoint" />
            <mxPoint x="258" y="580" as="targetPoint" />
          </mxGeometry>
        </mxCell>
        <mxCell id="Pcf5EiftOgaEAAoJkqyD-38" value="" style="endArrow=classic;html=1;rounded=0;exitX=0;exitY=0.5;exitDx=0;exitDy=0;entryX=1;entryY=0.5;entryDx=0;entryDy=0;" edge="1" parent="1" source="Pcf5EiftOgaEAAoJkqyD-16" target="k8xiuk84udCLGPVKzXrW-5">
          <mxGeometry width="50" height="50" relative="1" as="geometry">
            <mxPoint x="558" y="760" as="sourcePoint" />
            <mxPoint x="378" y="670" as="targetPoint" />
          </mxGeometry>
        </mxCell>
        <mxCell id="Pcf5EiftOgaEAAoJkqyD-39" value="" style="endArrow=classic;html=1;rounded=0;exitX=1;exitY=0.5;exitDx=0;exitDy=0;entryX=0;entryY=0.5;entryDx=0;entryDy=0;" edge="1" parent="1" source="Pcf5EiftOgaEAAoJkqyD-10" target="k8xiuk84udCLGPVKzXrW-5">
          <mxGeometry width="50" height="50" relative="1" as="geometry">
            <mxPoint x="138" y="530" as="sourcePoint" />
            <mxPoint x="258" y="670" as="targetPoint" />
          </mxGeometry>
        </mxCell>
        <mxCell id="Pcf5EiftOgaEAAoJkqyD-40" value="" style="endArrow=classic;html=1;rounded=0;exitX=1;exitY=0.5;exitDx=0;exitDy=0;entryX=0;entryY=0.5;entryDx=0;entryDy=0;" edge="1" parent="1" source="Pcf5EiftOgaEAAoJkqyD-23" target="Pcf5EiftOgaEAAoJkqyD-15">
          <mxGeometry width="50" height="50" relative="1" as="geometry">
            <mxPoint x="138" y="920" as="sourcePoint" />
            <mxPoint x="258" y="770" as="targetPoint" />
          </mxGeometry>
        </mxCell>
        <mxCell id="Pcf5EiftOgaEAAoJkqyD-41" value="Spawn" style="endArrow=classic;html=1;rounded=0;exitX=1;exitY=0.5;exitDx=0;exitDy=0;entryX=1;entryY=0.5;entryDx=0;entryDy=0;edgeStyle=orthogonalEdgeStyle;curved=1;" edge="1" parent="1" target="Pcf5EiftOgaEAAoJkqyD-16">
          <mxGeometry width="50" height="50" relative="1" as="geometry">
            <mxPoint x="668" y="450" as="sourcePoint" />
            <mxPoint x="668" y="650" as="targetPoint" />
            <Array as="points">
              <mxPoint x="810" y="450" />
              <mxPoint x="810" y="750" />
            </Array>
          </mxGeometry>
        </mxCell>
        <mxCell id="Pcf5EiftOgaEAAoJkqyD-42" value="Timer" style="ellipse;whiteSpace=wrap;html=1;" vertex="1" parent="1">
          <mxGeometry x="8" y="330" width="120" height="80" as="geometry" />
        </mxCell>
        <mxCell id="Pcf5EiftOgaEAAoJkqyD-43" value="" style="endArrow=classic;html=1;rounded=0;exitX=0.5;exitY=0;exitDx=0;exitDy=0;entryX=0.5;entryY=1;entryDx=0;entryDy=0;" edge="1" parent="1" source="Pcf5EiftOgaEAAoJkqyD-10" target="Pcf5EiftOgaEAAoJkqyD-42">
          <mxGeometry width="50" height="50" relative="1" as="geometry">
            <mxPoint x="138" y="530" as="sourcePoint" />
            <mxPoint x="258" y="480" as="targetPoint" />
          </mxGeometry>
        </mxCell>
      </root>
    </mxGraphModel>
  </diagram>
</mxfile>
